<svg xmlns="http://www.w3.org/2000/svg" width="60.988" height="90.03" viewBox="0 0 60.988 90.03">
  <g id="Gruppe_3635" data-name="Gruppe 3635" transform="translate(-431.06 -943.026)">
    <path id="Pfad_3860" data-name="Pfad 3860" d="M454.223,1005.475a5.776,5.776,0,0,1-1.25-3.93,23.545,23.545,0,0,1,2.384-11.078,56.483,56.483,0,0,1,6.911-9.886,57.011,57.011,0,0,0,5.233-7.142,12.5,12.5,0,0,0,1.668-6.432,7.573,7.573,0,0,0-2.918-6.255,12.39,12.39,0,0,0-7.918-2.321,19.138,19.138,0,0,0-8.219,1.846,75.784,75.784,0,0,0-9.169,5.3,10.757,10.757,0,0,1-4.884,1.668,4.4,4.4,0,0,1-3.508-1.846,6.977,6.977,0,0,1,1.366-9.945,37.356,37.356,0,0,1,11.8-6.73,40.256,40.256,0,0,1,13.694-2.443,31.683,31.683,0,0,1,12.919,2.5,20.97,20.97,0,0,1,8.81,6.911,16.938,16.938,0,0,1,3.159,10.123,19.412,19.412,0,0,1-2.975,10.778,66.46,66.46,0,0,1-8.694,10.3,78.114,78.114,0,0,0-7.326,8.392,16.835,16.835,0,0,0-3.034,7.682,4.734,4.734,0,0,1-1.609,2.922,4.875,4.875,0,0,1-3.159,1.007A4.155,4.155,0,0,1,454.223,1005.475Zm-2.8,23.876a9.37,9.37,0,0,1,0-12.744,9.069,9.069,0,0,1,12.628,0,8.762,8.762,0,0,1,2.5,6.371,8.649,8.649,0,0,1-2.559,6.373,9,9,0,0,1-12.571,0Z" transform="translate(0 1.146)" fill="#fff252"/>
    <path id="Pfad_3861" data-name="Pfad 3861" d="M458.7,1003.218a5.766,5.766,0,0,1-1.25-3.93,23.546,23.546,0,0,1,2.384-11.078,56.416,56.416,0,0,1,6.91-9.885,56.878,56.878,0,0,0,5.234-7.143,12.508,12.508,0,0,0,1.666-6.43,7.573,7.573,0,0,0-2.916-6.257,12.393,12.393,0,0,0-7.918-2.321,19.131,19.131,0,0,0-8.219,1.846,75.59,75.59,0,0,0-9.169,5.3,10.758,10.758,0,0,1-4.884,1.666,4.4,4.4,0,0,1-3.509-1.846A6.975,6.975,0,0,1,438.4,953.2a37.345,37.345,0,0,1,11.8-6.732,40.287,40.287,0,0,1,13.694-2.442,31.67,31.67,0,0,1,12.92,2.5,20.963,20.963,0,0,1,8.81,6.91,16.952,16.952,0,0,1,3.159,10.123,19.412,19.412,0,0,1-2.975,10.778,66.469,66.469,0,0,1-8.694,10.3,78,78,0,0,0-7.327,8.393,16.823,16.823,0,0,0-3.034,7.68,4.727,4.727,0,0,1-1.609,2.922,4.872,4.872,0,0,1-3.159,1.007A4.154,4.154,0,0,1,458.7,1003.218Zm-2.8,23.876a9.366,9.366,0,0,1,0-12.744,9.069,9.069,0,0,1,12.628,0,8.77,8.77,0,0,1,2.5,6.373,8.646,8.646,0,0,1-2.559,6.371,9,9,0,0,1-12.569,0Z" transform="translate(2.274)" fill="none" stroke="#183a64" stroke-linecap="round" stroke-linejoin="round" stroke-width="2"/>
  </g>
</svg>
