<svg xmlns="http://www.w3.org/2000/svg" width="97.7" height="94.76" viewBox="0 0 97.7 94.76">
  <g id="Gruppe_3634" data-name="Gruppe 3634" transform="translate(-290.132 -934.113)">
    <path id="Pfad_3853" data-name="Pfad 3853" d="M358.866,985.834v-6.76l-6.258-2.578-1.54-3.718,2.6-6.248-4.781-4.781-6.248,2.6-3.718-1.54-2.578-6.259h-6.76l-2.578,6.259-3.717,1.54-6.249-2.6-4.781,4.781,2.6,6.248-1.54,3.718-6.258,2.578v6.76l6.258,2.578,1.54,3.717-2.6,6.249,4.781,4.781,6.249-2.6,3.717,1.54,2.578,6.258h6.76l2.578-6.258,3.718-1.54,6.248,2.6,4.781-4.781-2.6-6.249,1.54-3.717Zm-25.9,7.117a10.5,10.5,0,1,1,10.5-10.5A10.5,10.5,0,0,1,332.966,992.951Z" transform="translate(2.574 3.518)" fill="#fff252"/>
    <g id="Gruppe_3630" data-name="Gruppe 3630" transform="translate(313.081 955.92)">
      <path id="Pfad_3854" data-name="Pfad 3854" d="M351.847,999.593l4.781-4.781-2.6-6.249,1.54-3.718,6.259-2.578v-6.761l-6.259-2.578-1.54-3.717,2.6-6.249-4.781-4.78-6.248,2.6-3.718-1.54-2.578-6.259h-6.761l-2.578,6.259-3.717,1.54-6.249-2.6-4.781,4.78,2.6,6.249-1.54,3.717-6.259,2.578v6.761l6.259,2.578,1.54,3.718-2.6,6.249L320,999.593l6.249-2.6,3.717,1.54,2.578,6.259H339.3l2.578-6.259,3.718-1.54Z" transform="translate(-310.022 -952.987)" fill="none" stroke="#183a64" stroke-linecap="round" stroke-linejoin="round" stroke-width="2"/>
      <path id="Pfad_3855" data-name="Pfad 3855" d="M333.751,987.214a10.5,10.5,0,1,1,10.5-10.5A10.5,10.5,0,0,1,333.751,987.214Z" transform="translate(-307.85 -950.816)" fill="none" stroke="#183a64" stroke-linecap="round" stroke-linejoin="round" stroke-width="2"/>
    </g>
    <g id="Gruppe_3633" data-name="Gruppe 3633" transform="translate(291.376 935.113)">
      <path id="Pfad_3856" data-name="Pfad 3856" d="M291.376,981.821a46.716,46.716,0,0,1,90.4-16.541" transform="translate(-291.376 -935.113)" fill="none" stroke="#183a64" stroke-linecap="round" stroke-linejoin="round" stroke-width="2"/>
      <g id="Gruppe_3631" data-name="Gruppe 3631" transform="translate(74.339 14.197)">
        <path id="Pfad_3857" data-name="Pfad 3857" d="M376.11,947.309,371.328,963.4l-16.092-4.782" transform="translate(-355.236 -947.309)" fill="none" stroke="#183a64" stroke-linecap="round" stroke-linejoin="round" stroke-width="2"/>
      </g>
      <path id="Pfad_3858" data-name="Pfad 3858" d="M385.91,974.674a46.716,46.716,0,0,1-90.4,16.541" transform="translate(-290.698 -928.621)" fill="none" stroke="#183a64" stroke-linecap="round" stroke-linejoin="round" stroke-width="2"/>
      <g id="Gruppe_3632" data-name="Gruppe 3632" transform="translate(0 62.472)">
        <path id="Pfad_3859" data-name="Pfad 3859" d="M291.376,1004.87l4.782-16.092,16.092,4.782" transform="translate(-291.376 -988.779)" fill="none" stroke="#183a64" stroke-linecap="round" stroke-linejoin="round" stroke-width="2"/>
      </g>
    </g>
  </g>
</svg>
