<svg xmlns="http://www.w3.org/2000/svg" width="142.906" height="81.816" viewBox="0 0 142.906 81.816">
  <g id="Gruppe_3629" data-name="Gruppe 3629" transform="translate(-363.878 -948.942)">
    <path id="Pfad_3847" data-name="Pfad 3847" d="M372.968,972.305V958.213a2.512,2.512,0,0,1,2.511-2.511h97.133a2.511,2.511,0,0,1,2.511,2.511v59.9a2.51,2.51,0,0,1-2.511,2.511H375.479a2.511,2.511,0,0,1-2.511-2.511v-8.221" transform="translate(6.979 0.067)" fill="#fff252"/>
    <path id="Pfad_3848" data-name="Pfad 3848" d="M494.173,1010.153h-132.3" transform="translate(3 19.604)" fill="none" stroke="#fff252" stroke-linecap="round" stroke-linejoin="round" stroke-width="2"/>
    <path id="Pfad_3849" data-name="Pfad 3849" d="M381.513,966.544V952.452a2.511,2.511,0,0,1,2.511-2.51h97.133a2.51,2.51,0,0,1,2.511,2.51v59.9a2.51,2.51,0,0,1-2.511,2.511H384.024a2.511,2.511,0,0,1-2.511-2.511v-8.221" transform="translate(7.045)" fill="none" stroke="#183a64" stroke-linecap="round" stroke-linejoin="round" stroke-width="2"/>
    <path id="Pfad_3850" data-name="Pfad 3850" d="M502.718,1004.393h-132.3" transform="translate(3.066 19.538)" fill="none" stroke="#183a64" stroke-linecap="round" stroke-linejoin="round" stroke-width="2"/>
    <g id="Gruppe_3628" data-name="Gruppe 3628" transform="translate(373.489 963.844)">
      <path id="Pfad_3851" data-name="Pfad 3851" d="M397.043,960.173h8.3l9.539,30.174H438.83" transform="translate(-360.871 -960.173)" fill="none" stroke="#183a64" stroke-linecap="round" stroke-linejoin="round" stroke-width="2"/>
      <path id="Pfad_3852" data-name="Pfad 3852" d="M404.9,965.209h34.528L432.8,981.178H409.88" transform="translate(-358.051 -958.366)" fill="none" stroke="#183a64" stroke-linecap="round" stroke-linejoin="round" stroke-width="2"/>
      <circle id="Ellipse_169" data-name="Ellipse 169" cx="3.007" cy="3.007" r="3.007" transform="translate(54.536 35.565)" fill="none" stroke="#183a64" stroke-linecap="round" stroke-linejoin="round" stroke-width="2"/>
      <circle id="Ellipse_170" data-name="Ellipse 170" cx="3.007" cy="3.007" r="3.007" transform="translate(69.976 35.565)" fill="none" stroke="#183a64" stroke-linecap="round" stroke-linejoin="round" stroke-width="2"/>
      <line id="Linie_749" data-name="Linie 749" x2="18.776" transform="translate(20.173 13.157)" fill="none" stroke="#183a64" stroke-linecap="round" stroke-linejoin="round" stroke-width="2"/>
      <line id="Linie_750" data-name="Linie 750" x2="26.809" transform="translate(12.14 29.471)" fill="none" stroke="#183a64" stroke-linecap="round" stroke-linejoin="round" stroke-width="2"/>
      <line id="Linie_751" data-name="Linie 751" x2="35.535" transform="translate(0 21.314)" fill="none" stroke="#183a64" stroke-linecap="round" stroke-linejoin="round" stroke-width="2"/>
    </g>
  </g>
</svg>
