<svg xmlns="http://www.w3.org/2000/svg" width="83.392" height="114.234" viewBox="0 0 83.392 114.234">
  <g id="Gruppe_3624" data-name="Gruppe 3624" transform="translate(-3611.972 -2682.256)">
    <g id="Group_3384" data-name="Group 3384" transform="translate(3684.656 2718.515)">
      <path id="Path_3336" data-name="Path 3336" d="M3782.461,2783.263a4.592,4.592,0,1,1,9.082,1.36c-.005.03-.009.059-.014.088" transform="translate(-3782.461 -2773.999)" fill="none" stroke="#183a64" stroke-linecap="round" stroke-linejoin="round" stroke-width="2"/>
      <circle id="Ellipse_224" data-name="Ellipse 224" cx="2.728" cy="2.728" r="2.728" transform="translate(2.965 0)" fill="none" stroke="#183a64" stroke-linecap="round" stroke-linejoin="round" stroke-width="2"/>
    </g>
    <g id="Group_3385" data-name="Group 3385" transform="translate(3653.13 2710.562)">
      <path id="Path_3337" data-name="Path 3337" d="M3707.862,2765.186a4.595,4.595,0,0,1,9.189-.068c0,.082,0,.164,0,.246" transform="translate(-3707.861 -2755.195)" fill="none" stroke="#183a64" stroke-linecap="round" stroke-linejoin="round" stroke-width="2"/>
      <circle id="Ellipse_225" data-name="Ellipse 225" cx="2.728" cy="2.728" r="2.728" transform="translate(2.005 0)" fill="none" stroke="#183a64" stroke-linecap="round" stroke-linejoin="round" stroke-width="2"/>
    </g>
    <g id="Group_3386" data-name="Group 3386" transform="translate(3685.049 2702.05)">
      <path id="Path_3338" data-name="Path 3338" d="M3783.39,2739.655a3.332,3.332,0,1,1,6.6.909c-.007.058-.017.116-.028.174" transform="translate(-3783.39 -2732.952)" fill="none" stroke="#183a64" stroke-linecap="round" stroke-linejoin="round" stroke-width="2"/>
      <circle id="Ellipse_226" data-name="Ellipse 226" cx="1.98" cy="1.98" r="1.98" transform="translate(2.176 0)" fill="none" stroke="#183a64" stroke-linecap="round" stroke-linejoin="round" stroke-width="2"/>
    </g>
    <g id="Group_3387" data-name="Group 3387" transform="translate(3665.166 2696.974)">
      <path id="Path_3339" data-name="Path 3339" d="M3736.413,2729.482a3.5,3.5,0,1,1,6.866-1.4c.006.031.012.063.018.094" transform="translate(-3736.342 -2721.238)" fill="none" stroke="#183a64" stroke-linecap="round" stroke-linejoin="round" stroke-width="2"/>
      <circle id="Ellipse_227" data-name="Ellipse 227" cx="2.08" cy="2.08" r="2.08" transform="translate(0.388 0)" fill="none" stroke="#183a64" stroke-linecap="round" stroke-linejoin="round" stroke-width="1.999"/>
    </g>
    <g id="Group_3388" data-name="Group 3388" transform="translate(3656.155 2683.256)">
      <path id="Path_3340" data-name="Path 3340" d="M3715.02,2693.7a2.854,2.854,0,0,1,5.665.693l0,.038" transform="translate(-3715.02 -2687.839)" fill="none" stroke="#183a64" stroke-linecap="round" stroke-linejoin="round" stroke-width="2"/>
      <circle id="Ellipse_228" data-name="Ellipse 228" cx="1.696" cy="1.696" r="1.696" transform="translate(1.72)" fill="none" stroke="#183a64" stroke-linecap="round" stroke-linejoin="round" stroke-width="2"/>
    </g>
    <g id="Group_3389" data-name="Group 3389" transform="translate(3677.929 2685.865)">
      <path id="Path_3341" data-name="Path 3341" d="M3766.541,2699.9a2.853,2.853,0,1,1,5.659.733h0" transform="translate(-3766.541 -2694.041)" fill="none" stroke="#183a64" stroke-linecap="round" stroke-linejoin="round" stroke-width="2"/>
      <circle id="Ellipse_229" data-name="Ellipse 229" cx="1.696" cy="1.696" r="1.696" transform="translate(1.719 0)" fill="none" stroke="#183a64" stroke-linecap="round" stroke-linejoin="round" stroke-width="2"/>
    </g>
    <g id="Group_3390" data-name="Group 3390" transform="translate(3638.089 2703.225)">
      <path id="Path_3342" data-name="Path 3342" d="M3672.27,2740.737a2.853,2.853,0,0,1,5.612,1.036h0" transform="translate(-3672.27 -2735.065)" fill="none" stroke="#183a64" stroke-linecap="round" stroke-linejoin="round" stroke-width="2"/>
      <circle id="Ellipse_230" data-name="Ellipse 230" cx="1.695" cy="1.695" r="1.695" transform="translate(1.939)" fill="none" stroke="#183a64" stroke-linecap="round" stroke-linejoin="round" stroke-width="2"/>
    </g>
    <g id="Gruppe_3622" data-name="Gruppe 3622" transform="translate(3613.072 2717.303)">
      <path id="Pfad_3836" data-name="Pfad 3836" d="M3672.1,2809.258l-8.5,21.685a18.459,18.459,0,0,1-23.923,10.45h0a18.459,18.459,0,0,1-10.449-23.923l8.5-21.685-14.062-5.512-8.265,21.087a33.564,33.564,0,0,0,19,43.5h0a33.564,33.564,0,0,0,43.5-19l8.265-21.087Z" transform="translate(-3613.071 -2779.094)" fill="#fff252" stroke="#fff252" stroke-linecap="round" stroke-linejoin="round" stroke-width="2"/>
      <rect id="Rechteck_2832" data-name="Rechteck 2832" width="12.007" height="15.104" transform="matrix(0.365, -0.931, 0.931, 0.365, 10.589, 11.179)" fill="#fff252" stroke="#fff252" stroke-linecap="round" stroke-linejoin="round" stroke-width="2"/>
      <rect id="Rechteck_2833" data-name="Rechteck 2833" width="12.007" height="15.104" transform="matrix(0.365, -0.931, 0.931, 0.365, 59.025, 30.164)" fill="#fff252" stroke="#fff252" stroke-linecap="round" stroke-linejoin="round" stroke-width="2"/>
    </g>
    <g id="Gruppe_3623" data-name="Gruppe 3623" transform="translate(3616.599 2716.263)">
      <path id="Pfad_3837" data-name="Pfad 3837" d="M3680.443,2806.8l-8.5,21.685a18.46,18.46,0,0,1-23.924,10.451h0a18.46,18.46,0,0,1-10.45-23.924l8.5-21.685-14.063-5.511-8.265,21.087a33.565,33.565,0,0,0,19,43.5h0a33.564,33.564,0,0,0,43.5-19l8.265-21.087Z" transform="translate(-3621.418 -2776.633)" fill="none" stroke="#183a64" stroke-linecap="round" stroke-linejoin="round" stroke-width="2"/>
      <rect id="Rechteck_2834" data-name="Rechteck 2834" width="12.007" height="15.104" transform="matrix(0.365, -0.931, 0.931, 0.365, 10.589, 11.179)" fill="none" stroke="#183a64" stroke-linecap="round" stroke-linejoin="round" stroke-width="2"/>
      <rect id="Rechteck_2835" data-name="Rechteck 2835" width="12.007" height="15.104" transform="matrix(0.365, -0.931, 0.931, 0.365, 59.025, 30.163)" fill="none" stroke="#183a64" stroke-linecap="round" stroke-linejoin="round" stroke-width="2"/>
    </g>
  </g>
</svg>
