<svg xmlns="http://www.w3.org/2000/svg" width="116.353" height="103.723" viewBox="0 0 116.353 103.723">
  <g id="Gruppe_3627" data-name="Gruppe 3627" transform="translate(-161.731 -308.251)">
    <path id="Pfad_3838" data-name="Pfad 3838" d="M232.158,309.9H180.627a1.439,1.439,0,0,0-1.353,1.512V347.7a1.439,1.439,0,0,0,1.353,1.512h6.732a.262.262,0,0,1,.248.277l-4.414,17.851c0,.307,15.655-17.936,15.655-17.936a1.252,1.252,0,0,1,.662-.192h32.649a1.439,1.439,0,0,0,1.353-1.512V311.414A1.439,1.439,0,0,0,232.158,309.9Z" transform="translate(44.573 1.756)" fill="#fff252"/>
    <g id="Gruppe_3625" data-name="Gruppe 3625" transform="translate(232.974 318.926)">
      <path id="Pfad_3839" data-name="Pfad 3839" d="M181.743,323.326l8.029,7.4,14.8-18.856" transform="translate(-181.743 -311.868)" fill="none" stroke="#2a3137" stroke-linecap="round" stroke-linejoin="round" stroke-width="2"/>
    </g>
    <path id="Pfad_3840" data-name="Pfad 3840" d="M230.42,309.251H178.889a1.436,1.436,0,0,0-1.353,1.508v36.286a1.438,1.438,0,0,0,1.353,1.508h6.732a.269.269,0,0,1,.251.281l-4.418,17.847c0,.311,15.659-17.936,15.659-17.936a1.241,1.241,0,0,1,.662-.192H230.42a1.438,1.438,0,0,0,1.353-1.508V310.759A1.436,1.436,0,0,0,230.42,309.251Z" transform="translate(39.886 0)" fill="none" stroke="#2a3137" stroke-linecap="round" stroke-linejoin="round" stroke-width="2"/>
    <g id="Gruppe_3626" data-name="Gruppe 3626" transform="translate(162.745 342.138)">
      <path id="Pfad_3841" data-name="Pfad 3841" d="M162.756,353.5s-.684-7.848,8.754-9.438c10.846-1.83,13.334-7.733,13.308-13.533" transform="translate(-162.745 -284.751)" fill="none" stroke="#2a3137" stroke-linecap="round" stroke-linejoin="round" stroke-width="2"/>
      <path id="Pfad_3842" data-name="Pfad 3842" d="M194.767,353.5s.684-7.848-8.757-9.438c-10.842-1.83-13.33-7.733-13.3-13.533" transform="translate(-135.887 -284.751)" fill="none" stroke="#2a3137" stroke-linecap="round" stroke-linejoin="round" stroke-width="2"/>
      <path id="Pfad_3843" data-name="Pfad 3843" d="M169.461,323.189a5.863,5.863,0,0,0-.351,1.5c-.059,0-.115-.022-.177-.022-2.089,0-3.785,2.174-3.785,4.854,0,2.662,1.675,4.82,3.748,4.85,1.564,10.007,8.506,17.552,16.838,17.552s15.271-7.545,16.838-17.555c2.063-.037,3.73-2.192,3.73-4.846,0-2.68-1.7-4.854-3.785-4.854" transform="translate(-156.268 -304.552)" fill="none" stroke="#2a3137" stroke-linecap="round" stroke-linejoin="round" stroke-width="2"/>
      <path id="Pfad_3844" data-name="Pfad 3844" d="M168.256,336.784s2.739-7.807,13.656-7.353,13.752-3.567,12.114-7.223c-1.667-3.73-5.6-5.068-11.02-3.268-3.974,1.316-9.859-.846-13.984,2.909a10.754,10.754,0,0,0-.765,14.935" transform="translate(-155.063 -318.147)" fill="none" stroke="#2a3137" stroke-linecap="round" stroke-linejoin="round" stroke-width="2"/>
      <path id="Pfad_3845" data-name="Pfad 3845" d="M173.33,320.522s6.806-2.237,9.005,2.843-2.654,11.448-2.654,11.448S172.893,323.59,173.33,320.522Z" transform="translate(-134.256 -313.067)" fill="none" stroke="#2a3137" stroke-linecap="round" stroke-linejoin="round" stroke-width="2"/>
      <path id="Pfad_3846" data-name="Pfad 3846" d="M198.8,333.9c-1.893,4.244-8.443,7.375-16.239,7.375s-14.35-3.135-16.239-7.382" transform="translate(-153.105 -275.7)" fill="none" stroke="#2a3137" stroke-linecap="round" stroke-linejoin="round" stroke-width="2"/>
    </g>
  </g>
</svg>
